inDegrees=no
num_controls=7
num_derivatives=13
num_iterations=51
num_multipliers=7
num_parameters=0
num_slacks=7
num_states=26
objective=0.409351
objective_accelerations=0.053972
objective_balance=0.005922
objective_effort=0.039975
objective_height=0.304643
objective_ligament=0.004839
solver_duration=743.037085
status=Solve_Succeeded
success=true
DataType=double
version=3
OpenSimVersion=4.5
endheader
time	/jointset/ground_pelvis/pelvis_tilt/value	/jointset/ground_pelvis/pelvis_tx/value	/jointset/ground_pelvis/pelvis_ty/value	/jointset/hip_l/hip_flexion_l/value	/jointset/hip_l/hip_adduction_l/value	/jointset/hip_l/hip_rotation_l/value	/jointset/back/lumbar_extension/value	/jointset/patellofemoral_l/patellar_flexion_l/value	/jointset/knee_l/knee_flexion_l/value	/jointset/knee_l/knee_adduction_l/value	/jointset/knee_l/knee_rotation_l/value	/jointset/ankle_l/ankle_angle_l/value	/jointset/subtalar_l/subtalar_angle_l/value	/jointset/ground_pelvis/pelvis_tilt/speed	/jointset/ground_pelvis/pelvis_tx/speed	/jointset/ground_pelvis/pelvis_ty/speed	/jointset/hip_l/hip_flexion_l/speed	/jointset/hip_l/hip_adduction_l/speed	/jointset/hip_l/hip_rotation_l/speed	/jointset/back/lumbar_extension/speed	/jointset/patellofemoral_l/patellar_flexion_l/speed	/jointset/knee_l/knee_flexion_l/speed	/jointset/knee_l/knee_adduction_l/speed	/jointset/knee_l/knee_rotation_l/speed	/jointset/ankle_l/ankle_angle_l/speed	/jointset/subtalar_l/subtalar_angle_l/speed	/forceset/tau_hip_flexion_l	/forceset/tau_hip_adduction_l	/forceset/tau_hip_rotation_l	/forceset/tau_knee_flexion_l	/forceset/tau_ankle_angle_l	/forceset/tau_subtalar_angle_l	/forceset/tau_lumbar_extension	lambda_cid13_p0	lambda_cid13_p1	lambda_cid13_p2	lambda_cid13_p3	lambda_cid13_p4	lambda_cid13_p5	lambda_cid14_p0	/jointset/ground_pelvis/pelvis_tilt/accel	/jointset/ground_pelvis/pelvis_tx/accel	/jointset/ground_pelvis/pelvis_ty/accel	/jointset/hip_l/hip_flexion_l/accel	/jointset/hip_l/hip_adduction_l/accel	/jointset/hip_l/hip_rotation_l/accel	/jointset/back/lumbar_extension/accel	/jointset/patellofemoral_l/patellar_flexion_l/accel	/jointset/knee_l/knee_flexion_l/accel	/jointset/knee_l/knee_adduction_l/accel	/jointset/knee_l/knee_rotation_l/accel	/jointset/ankle_l/ankle_angle_l/accel	/jointset/subtalar_l/subtalar_angle_l/accel	gamma_cid13_p0	gamma_cid13_p1	gamma_cid13_p2	gamma_cid13_p3	gamma_cid13_p4	gamma_cid13_p5	gamma_cid14_p0
1.5	-0.3107653542378761	-0.04385615089806134	0.6809660944740452	1.424161144745414	-0.2472932760918936	-0.01622933569525192	-0.3810804528059527	1.18895632790413	1.188956327904455	0.03257172709086321	0.1745163973263038	0.2907418283998396	0.08148367713823855	0.2099603440827866	0.08398014033464624	0.8476865708418897	-2.581376245210121	-0.06359182908554195	-0.3895239044130536	0.5070027306848441	-2.9705199854985	-2.970519985498494	-0.5131242249756535	0.0004109089785290861	-0.7525764661172153	-0.2972435818330332	-0.2136650360969412	0.03401700835060534	-0.01129645663760436	-0.3377669522376713	0.1156117040919389	0.001751250103812299	0.2189509261184713	-2.552769218791854	4.572930058799404	-6.713057787401945	-8.485587321830065	-618.84330619261	-36.05252456692796	-0.8986831617616601	1.634256069164005	1.117375068630625	-0.4030964060826882	-2.810682480299612	-0.2795271004721366	-1.041957054400133	2.599747111975232	-2.731808074628956	-2.73180807462886	-0.5308028589451139	-0.1148339356345036	-1.833072156020477	-0.4762399851584468	-3.195415072373038e-07	5.893355253049693e-06	4.796640309719115e-06	1.062691428748921e-06	3.382158203796568e-07	5.402924940404234e-06	-4.004738127530207e-08
1.51	-0.3085848822268622	-0.04296052082047308	0.6894205956012383	1.398210311868993	-0.2479440441613879	-0.02018378092637607	-0.3758810962022415	1.159117779348283	1.159117779348487	0.02741837695967033	0.1745196238882217	0.2831250554504036	0.07848678246799504	0.2260546518438921	0.09514330602231862	0.8429858619973999	-2.608421786258754	-0.06651975929965701	-0.4013907033488717	0.5328168714691998	-2.996765944901569	-2.996765944901608	-0.5174953607428526	0.0002025353544798068	-0.7706353044609295	-0.3020076801082853	-0.2069916088018201	0.03327822471537938	-0.01063667751182289	-0.3304962927981229	0.1170878489199336	0.001435513244348134	0.2128648932966759	-1.551536396455904	4.219847791574847	-6.297073822200245	-9.029541741947014	-610.4760179180255	-35.86111607815161	-1.633004057370451	1.585095878839137	1.115626146018868	-0.537652885612507	-2.596224012988948	-0.2941315007305008	-1.262692250664921	2.564489773582129	-2.507430736810307	-2.507430736817127	-0.3818234169267283	0.0202607374317918	-1.770606829682817	-0.4589733418151615	-2.863958032662295e-07	6.373297972171218e-06	4.870096991127045e-06	1.101179105127734e-06	3.596153550767956e-07	5.407093198218611e-06	1.271440785524553e-08
1.52	-0.306245851588391	-0.04195329132057145	0.69782127068759	1.372000076762915	-0.2486230326367919	-0.02425762433435417	-0.3704251497483042	1.129029483025675	1.129029483025756	0.02222300457452682	0.1745195866765745	0.2753320306863022	0.07544575109637773	0.2416720695752163	0.1063000247973197	0.8369213626736949	-2.633256691141136	-0.06923591026775316	-0.4134035397843786	0.558320700730217	-3.020469538851219	-3.020469538851303	-0.5215286757628254	-0.0002418457406904632	-0.7878268290500816	-0.3060709221078013	-0.2003181815066901	0.03253944108017856	-0.009976898386119636	-0.3232256333585747	0.1185639937479347	0.001119776384918685	0.2067788604748852	-0.5339127098518411	3.847936416643659	-5.859865839282307	-9.706656489438021	-601.8966324906079	-35.69141087116034	-2.614834395519413	1.538878063207697	1.116085686096396	-0.6758545019257146	-2.368555247049331	-0.237171251268349	-1.071164554337896	2.537684807307598	-2.223334983945171	-2.223334983945223	-0.4632387094998817	-0.1620354298586444	-1.659609405107986	-0.3360687300112514	-2.466185428565878e-07	6.797820713784672e-06	4.844164251254594e-06	1.129781377890604e-06	3.805979589573102e-07	5.340744363706141e-06	7.196504057429044e-08
1.53	-0.303752996884971	-0.04083461526772959	0.7061545107769505	1.345552611719474	-0.2493279422715215	-0.02845266125894021	-0.3647161437091994	1.098717335983091	1.098717335983471	0.01698927703224256	0.1745142781885416	0.2673718232398039	0.07236786558930468	0.2568070296648489	0.1174211804483036	0.8295005583079472	-2.655832255648752	-0.07166752073198202	-0.4256362808956962	0.5833985511259865	-3.041483223319311	-3.041483223319255	-0.5251008056106745	-0.0008781275804226863	-0.8040302138360356	-0.3093324540260111	-0.1932661439432813	0.03163232791823836	-0.009522171547405476	-0.3164318637315158	0.1200889457303303	0.0006993485243048234	0.2003349947646358	0.4771713621078364	3.517496485459174	-5.423390359398002	-10.22660874195939	-593.4151473357599	-35.49125342473224	-3.82374885882184	1.48703252359955	1.108261220242929	-0.8090255107198717	-2.141448070391871	-0.2354465632735009	-1.303898827737969	2.480541761135184	-1.968922930650851	-1.968922930629784	-0.2857407498422548	-0.02419661780587117	-1.572741851062689	-0.2968524811481646	-1.997952537309685e-07	7.163459729295805e-06	4.712630251271741e-06	1.147880409311533e-06	4.011375738451614e-07	5.199471118596398e-06	1.381100696061137e-07
